# xmcd
#
# Track frame offsets: 
#        150
#        25363
#        49890
#        75096
#        94481
#        115054
#        146483
#        177272
#        200883
#        224543
#        256343
#        278160
#
# Disc length: 4201 seconds
#
# Revision: 0
# Processed by: cddbd v1.5.2PL0 Copyright (c) Steve Scherf et al.
# Submitted via: ExactAudioCopy v0.99pb3
#
DISCID=b010670c
DTITLE=Seabound - When Black Beats Blue
DYEAR=1900
DGENRE=Acid Jazz
TTITLE0=Breathe (Hecq)
TTITLE1=The Promise (Club)
TTITLE2=Domination Vs. Bound (Mindless Faith)
TTITLE3=The Attic
TTITLE4=Scorch The Ground (Forma Tadre)
TTITLE5=Torch (Monozelle)
TTITLE6=Breathe (Acretongue)
TTITLE7=Hooked (Radical Alt. Vocal)
TTITLE8=Soul Diver (Remix)
TTITLE9=Contact (Haujobb)
TTITLE10=Domination (Die Form)
TTITLE11=Watching Over You (Live In Sf)
EXTD=
EXTT0=
EXTT1=
EXTT2=
EXTT3=
EXTT4=
EXTT5=
EXTT6=
EXTT7=
EXTT8=
EXTT9=
EXTT10=
EXTT11=
PLAYORDER=
